<svg xmlns="http://www.w3.org/2000/svg" viewBox="-113.9 -110.0 227.8 220.0" width="228" height="220">
  <rect x="-113.9" y="-110.0" width="227.8" height="220.0" fill="#0F1729"/>
  <path d="M 0.00 -40.00 L 34.64 -20.00 L 34.64 20.00 L 0.00 40.00 L -34.64 20.00 L -34.64 -20.00 Z M 0.00 -29.61 L 25.64 -14.80 L 25.64 14.80 L 0.00 29.61 L -25.64 14.80 L -25.64 -14.80 Z" fill="#FFFFFF" fill-rule="evenodd"/>
  <path d="M 69.28 -40.00 L 103.92 -20.00 L 103.92 20.00 L 69.28 40.00 L 34.64 20.00 L 34.64 -20.00 Z M 69.28 -29.61 L 94.92 -14.80 L 94.92 14.80 L 69.28 29.61 L 43.64 14.80 L 43.64 -14.80 Z" fill="#FFFFFF" fill-rule="evenodd"/>
  <path d="M -69.28 -40.00 L -34.64 -20.00 L -34.64 20.00 L -69.28 40.00 L -103.92 20.00 L -103.92 -20.00 Z M -69.28 -29.61 L -43.64 -14.80 L -43.64 14.80 L -69.28 29.61 L -94.92 14.80 L -94.92 -14.80 Z" fill="#FFFFFF" fill-rule="evenodd"/>
  <path d="M 34.64 20.00 L 69.28 40.00 L 69.28 80.00 L 34.64 100.00 L 0.00 80.00 L 0.00 40.00 Z M 34.64 30.39 L 60.28 45.20 L 60.28 74.80 L 34.64 89.61 L 9.00 74.80 L 9.00 45.20 Z" fill="#FFFFFF" fill-rule="evenodd"/>
  <path d="M -34.64 20.00 L 0.00 40.00 L 0.00 80.00 L -34.64 100.00 L -69.28 80.00 L -69.28 40.00 Z M -34.64 30.39 L -9.00 45.20 L -9.00 74.80 L -34.64 89.61 L -60.28 74.80 L -60.28 45.20 Z" fill="#FFFFFF" fill-rule="evenodd"/>
  <path d="M 34.64 -100.00 L 69.28 -80.00 L 69.28 -40.00 L 34.64 -20.00 L 0.00 -40.00 L 0.00 -80.00 Z M 34.64 -89.61 L 60.28 -74.80 L 60.28 -45.20 L 34.64 -30.39 L 9.00 -45.20 L 9.00 -74.80 Z" fill="#FFFFFF" fill-rule="evenodd"/>
  <path d="M -34.64 -100.00 L 0.00 -80.00 L 0.00 -40.00 L -34.64 -20.00 L -69.28 -40.00 L -69.28 -80.00 Z M -34.64 -89.61 L -9.00 -74.80 L -9.00 -45.20 L -34.64 -30.39 L -60.28 -45.20 L -60.28 -74.80 Z" fill="#FFFFFF" fill-rule="evenodd"/>
  <path d="M 0.00 -15.00 L 12.99 -7.50 L 12.99 7.50 L 0.00 15.00 L -12.99 7.50 L -12.99 -7.50 Z" fill="#FFFFFF"/>
  <path d="M 34.64 45.00 L 47.63 52.50 L 47.63 67.50 L 34.64 75.00 L 21.65 67.50 L 21.65 52.50 Z" fill="#FFFFFF"/>
  <path d="M -34.64 45.00 L -21.65 52.50 L -21.65 67.50 L -34.64 75.00 L -47.63 67.50 L -47.63 52.50 Z" fill="#FFFFFF"/>
  <path d="M -34.64 -75.00 L -21.65 -67.50 L -21.65 -52.50 L -34.64 -45.00 L -47.63 -52.50 L -47.63 -67.50 Z" fill="#FFFFFF"/>
</svg>
