<svg xmlns="http://www.w3.org/2000/svg" viewBox="-98.6 -137.0 197.2 199.0" width="197" height="199">
  <polygon points="0.00,-125.75 43.95,-100.38 43.95,-49.63 0.00,-24.25 -43.95,-49.62 -43.95,-100.38" fill="#1C4EBF"/>
  <path d="M -43.30 -50.75 L 0.65 -25.38 L 0.65 25.37 L -43.30 50.75 L -87.25 25.38 L -87.25 -25.38 Z M -43.30 0.00 L -43.30 33.00 L -71.88 16.50 L -71.88 -16.50 L -43.30 -33.00 L -14.72 -16.50 Z" fill="#10A5C4" fill-rule="evenodd"/>
  <path d="M 43.30 -50.75 L 87.25 -25.38 L 87.25 25.37 L 43.30 50.75 L -0.65 25.38 L -0.65 -25.38 Z M 43.30 -33.00 L 71.88 -16.50 L 71.88 16.50 L 43.30 33.00 L 14.72 16.50 L 14.72 -16.50 Z" fill="#7ED0E5" fill-rule="evenodd"/>
</svg>
